 http://img826.imageshack.us/img826/4918/31682058.jpg

Genre:Horror | Sci-Fi | Thriller
Language:English
IMDb:http://www.imdb.com/title/tt1259521/
Source:DVD Thanks
Encoder:Tony

Format : AVI
Format/Info : Audio Video Interleave
File size : 874 MiB
Duration : 1h 31mn
Overall bit rate : 1 341 Kbps

Video
ID : 0
Format : MPEG-4 Visual
Format profile : Advanced Simple@L5
Format settings, BVOP : 1
Format settings, QPel : No
Format settings, GMC : No warppoints
Format settings, Matrix : Default (H.263)
Codec ID : XVID
Codec ID/Hint : XviD
Duration : 1h 31mn
Bit rate : 947 Kbps
Width : 640 pixels
Height : 264 pixels
Display aspect ratio : 2.40:1
Frame rate : 25.000 fps
Color space : YUV
Chroma subsampling : 4:2:0
Bit depth : 8 bits
Scan type : Progressive
Compression mode : Lossy
Bits/(Pixel*Frame) : 0.224
Stream size : 617 MiB (71%)
Writing library : XviD 1.2.1 (UTC 2008-12-04)

Audio
ID : 1
Format : AC-3
Format/Info : Audio Coding 3
Mode extension : CM (complete main)
Codec ID : 2000
Duration : 1h 31mn
Bit rate mode : Constant
Bit rate : 384 Kbps
Channel(s) : 5 channels
Channel positions : Front: L C R, Side: L R
Sampling rate : 48.0 KHz
Bit depth : 16 bits
Compression mode : Lossy
Stream size : 250 MiB (29%)
Alignment : Split accross interleaves
Interleave, duration : 40 ms (1.00 video frame)
Interleave, preload duration : 500 ms


Plot:
Five friends go for a break at a remote cabin in the woods, where they get more than they bargained for. Together, they must discover the truth behind the cabin in the woods.
 
http://img89.imageshack.us/img89/169/vlcsnap2012081721h44m24g.png 
http://img824.imageshack.us/img824/1880/vlcsnap2012081721h45m08.png 
http://img839.imageshack.us/img839/3415/vlcsnap2012081721h45m27.png
